<svg xmlns="http://www.w3.org/2000/svg" width="103" height="103" viewBox="0 0 103 103"><defs><style>.a{fill:none;stroke:#f4f6f6;stroke-miterlimit:10;stroke-width:8px;}.b{fill:#1c2938;}</style></defs><g transform="translate(4 4)"><path class="a" d="M81.08,13.92a47.464,47.464,0,0,0-67.16,0,47.459,47.459,0,0,0-2.7,64.217l5.621,5.647A47.5,47.5,0,0,0,81.08,13.92Z" transform="translate(0 0)"/><path class="b" d="M96.053,196.8a3.976,3.976,0,0,1-7.953,0V184.076a3.976,3.976,0,0,1,7.953,0Z" transform="translate(-64.741 -132.346)"/><path class="b" d="M146.053,160.056a3.976,3.976,0,0,1-7.953,0V134.076a3.976,3.976,0,0,1,7.953,0Z" transform="translate(-101.483 -95.602)"/><path class="b" d="M196.053,174.754a3.976,3.976,0,0,1-7.953,0V154.076a3.976,3.976,0,0,1,7.953,0Z" transform="translate(-138.226 -110.299)"/><path class="b" d="M246.053,138.009a3.976,3.976,0,1,1-7.953,0V104.076a3.976,3.976,0,1,1,7.953,0Z" transform="translate(-174.969 -73.556)"/></g></svg>