<svg xmlns="http://www.w3.org/2000/svg" width="100" height="100.001" viewBox="0 0 100 100.001"><defs><style>.a{fill:#1c2938;}</style></defs><g transform="translate(-0.001)"><g transform="translate(0.001)"><path class="a" d="M50,0a50,50,0,1,0,50,50A50,50,0,0,0,50,0ZM30.107,68.155A3.454,3.454,0,1,1,33.561,64.7,3.452,3.452,0,0,1,30.107,68.155Zm0-14.7A3.454,3.454,0,1,1,33.561,50,3.452,3.452,0,0,1,30.107,53.454Zm0-14.7A3.454,3.454,0,1,1,33.561,35.3,3.452,3.452,0,0,1,30.107,38.754ZM73.349,67.938H40.968a3.458,3.458,0,1,1,0-6.916H73.349a3.458,3.458,0,1,1,0,6.916Zm0-14.589H40.968a3.458,3.458,0,1,1,0-6.916H73.349a3.458,3.458,0,1,1,0,6.916Zm0-14.589H40.968a3.458,3.458,0,0,1,0-6.916H73.349a3.458,3.458,0,0,1,0,6.916Z" transform="translate(-0.001)"/></g></g></svg>