<svg xmlns="http://www.w3.org/2000/svg" width="103" height="103" viewBox="0 0 103 103"><defs><style>.a{fill:none;stroke:#f4f6f6;stroke-miterlimit:10;stroke-width:8px;}.b{fill:#1c2938;}</style></defs><g transform="translate(-1780.311 -350)"><path class="a" d="M81.08,13.92a47.464,47.464,0,0,0-67.16,0,47.459,47.459,0,0,0-2.7,64.217l5.621,5.647A47.5,47.5,0,0,0,81.08,13.92Z" transform="translate(1784.311 354)"/><path class="b" d="M39.941,15.325V44a1.141,1.141,0,0,1-1.614,1.034,10.382,10.382,0,0,0-4.352-.943c-5.17,0-9.375,3.693-9.375,8.239s4.2,8.239,9.375,8.239,9.375-3.693,9.375-8.239V25.95a2.273,2.273,0,0,1,1.727-2.2l23.3-5.761a2.272,2.272,0,0,1,2.818,2.2v16.08A1.141,1.141,0,0,1,69.577,37.3a10.382,10.382,0,0,0-4.352-.943c-5.17,0-9.375,3.693-9.375,8.239s4.2,8.239,9.375,8.239S74.6,49.143,74.6,44.6V7.881a2.272,2.272,0,0,0-2.818-2.2L41.668,13.131A2.251,2.251,0,0,0,39.941,15.325Z" transform="translate(1780.312 368.798)"/></g></svg>